<mxfile host="app.diagrams.net" modified="2023-11-02T04:16:38.473Z" agent="Mozilla/5.0 (Windows NT 10.0; Win64; x64) AppleWebKit/537.36 (KHTML, like Gecko) Chrome/118.0.0.0 Safari/537.36" etag="gL1eEPPEZWYpzp1VQsac" version="22.0.8" type="github" pages="2">
  <diagram name="Login" id="3Osj_PpEpOVRLvcxN6Dh">
    <mxGraphModel dx="880" dy="516" grid="1" gridSize="10" guides="1" tooltips="1" connect="1" arrows="1" fold="1" page="1" pageScale="1" pageWidth="1600" pageHeight="1500" math="0" shadow="0">
      <root>
        <mxCell id="0" />
        <mxCell id="1" parent="0" />
        <mxCell id="aVHC4P-Hyo6wyfgjDPvl-1" value="Start" style="ellipse;whiteSpace=wrap;html=1;" vertex="1" parent="1">
          <mxGeometry x="240" y="90" width="120" height="80" as="geometry" />
        </mxCell>
        <mxCell id="aVHC4P-Hyo6wyfgjDPvl-2" value="Input Username and Password" style="shape=parallelogram;perimeter=parallelogramPerimeter;whiteSpace=wrap;html=1;fixedSize=1;" vertex="1" parent="1">
          <mxGeometry x="220" y="210" width="160" height="80" as="geometry" />
        </mxCell>
        <mxCell id="aVHC4P-Hyo6wyfgjDPvl-3" value="Match" style="rhombus;whiteSpace=wrap;html=1;" vertex="1" parent="1">
          <mxGeometry x="260" y="330" width="80" height="80" as="geometry" />
        </mxCell>
        <mxCell id="aVHC4P-Hyo6wyfgjDPvl-4" value="" style="endArrow=classic;html=1;rounded=0;exitX=0.5;exitY=1;exitDx=0;exitDy=0;entryX=0.5;entryY=0;entryDx=0;entryDy=0;" edge="1" parent="1" source="aVHC4P-Hyo6wyfgjDPvl-1" target="aVHC4P-Hyo6wyfgjDPvl-2">
          <mxGeometry width="50" height="50" relative="1" as="geometry">
            <mxPoint x="460" y="300" as="sourcePoint" />
            <mxPoint x="510" y="250" as="targetPoint" />
          </mxGeometry>
        </mxCell>
        <mxCell id="aVHC4P-Hyo6wyfgjDPvl-5" value="" style="endArrow=classic;html=1;rounded=0;exitX=0.5;exitY=1;exitDx=0;exitDy=0;entryX=0.5;entryY=0;entryDx=0;entryDy=0;" edge="1" parent="1" source="aVHC4P-Hyo6wyfgjDPvl-2" target="aVHC4P-Hyo6wyfgjDPvl-3">
          <mxGeometry width="50" height="50" relative="1" as="geometry">
            <mxPoint x="480" y="400" as="sourcePoint" />
            <mxPoint x="530" y="350" as="targetPoint" />
          </mxGeometry>
        </mxCell>
        <mxCell id="aVHC4P-Hyo6wyfgjDPvl-6" value="Show dashboard" style="rounded=0;whiteSpace=wrap;html=1;" vertex="1" parent="1">
          <mxGeometry x="240" y="460" width="120" height="60" as="geometry" />
        </mxCell>
        <mxCell id="aVHC4P-Hyo6wyfgjDPvl-7" value="" style="endArrow=classic;html=1;rounded=0;exitX=0.5;exitY=1;exitDx=0;exitDy=0;entryX=0.5;entryY=0;entryDx=0;entryDy=0;" edge="1" parent="1" source="aVHC4P-Hyo6wyfgjDPvl-3" target="aVHC4P-Hyo6wyfgjDPvl-6">
          <mxGeometry width="50" height="50" relative="1" as="geometry">
            <mxPoint x="430" y="430" as="sourcePoint" />
            <mxPoint x="480" y="380" as="targetPoint" />
          </mxGeometry>
        </mxCell>
        <mxCell id="aVHC4P-Hyo6wyfgjDPvl-8" value="Yes" style="edgeLabel;html=1;align=center;verticalAlign=middle;resizable=0;points=[];" vertex="1" connectable="0" parent="aVHC4P-Hyo6wyfgjDPvl-7">
          <mxGeometry x="-0.25" y="2" relative="1" as="geometry">
            <mxPoint as="offset" />
          </mxGeometry>
        </mxCell>
        <mxCell id="aVHC4P-Hyo6wyfgjDPvl-9" value="" style="endArrow=classic;html=1;rounded=0;exitX=1;exitY=0.5;exitDx=0;exitDy=0;entryX=1;entryY=0.5;entryDx=0;entryDy=0;" edge="1" parent="1" source="aVHC4P-Hyo6wyfgjDPvl-3" target="aVHC4P-Hyo6wyfgjDPvl-2">
          <mxGeometry width="50" height="50" relative="1" as="geometry">
            <mxPoint x="450" y="370" as="sourcePoint" />
            <mxPoint x="500" y="320" as="targetPoint" />
            <Array as="points">
              <mxPoint x="400" y="370" />
              <mxPoint x="400" y="250" />
            </Array>
          </mxGeometry>
        </mxCell>
        <mxCell id="aVHC4P-Hyo6wyfgjDPvl-11" value="No" style="edgeLabel;html=1;align=center;verticalAlign=middle;resizable=0;points=[];" vertex="1" connectable="0" parent="aVHC4P-Hyo6wyfgjDPvl-9">
          <mxGeometry x="0.3905" relative="1" as="geometry">
            <mxPoint y="36" as="offset" />
          </mxGeometry>
        </mxCell>
        <mxCell id="aVHC4P-Hyo6wyfgjDPvl-12" value="End" style="ellipse;whiteSpace=wrap;html=1;" vertex="1" parent="1">
          <mxGeometry x="240" y="560" width="120" height="80" as="geometry" />
        </mxCell>
        <mxCell id="aVHC4P-Hyo6wyfgjDPvl-13" value="" style="endArrow=classic;html=1;rounded=0;exitX=0.5;exitY=1;exitDx=0;exitDy=0;entryX=0.5;entryY=0;entryDx=0;entryDy=0;" edge="1" parent="1" source="aVHC4P-Hyo6wyfgjDPvl-6" target="aVHC4P-Hyo6wyfgjDPvl-12">
          <mxGeometry width="50" height="50" relative="1" as="geometry">
            <mxPoint x="440" y="560" as="sourcePoint" />
            <mxPoint x="490" y="510" as="targetPoint" />
          </mxGeometry>
        </mxCell>
      </root>
    </mxGraphModel>
  </diagram>
  <diagram id="lWIt7MHkIhdqNOLQ6yrl" name="Create DPL">
    <mxGraphModel dx="765" dy="449" grid="1" gridSize="10" guides="1" tooltips="1" connect="1" arrows="1" fold="1" page="1" pageScale="1" pageWidth="1600" pageHeight="1500" math="0" shadow="0">
      <root>
        <mxCell id="0" />
        <mxCell id="1" parent="0" />
        <mxCell id="iqB6r735V7o8VLmGWO_r-1" value="Start" style="ellipse;whiteSpace=wrap;html=1;" vertex="1" parent="1">
          <mxGeometry x="250" y="140" width="120" height="80" as="geometry" />
        </mxCell>
        <mxCell id="iqB6r735V7o8VLmGWO_r-2" value="Input DPL Detail,&lt;br&gt;excluding items detail" style="shape=parallelogram;perimeter=parallelogramPerimeter;whiteSpace=wrap;html=1;fixedSize=1;" vertex="1" parent="1">
          <mxGeometry x="230" y="460" width="160" height="80" as="geometry" />
        </mxCell>
        <mxCell id="iqB6r735V7o8VLmGWO_r-3" value="Add more ?" style="rhombus;whiteSpace=wrap;html=1;" vertex="1" parent="1">
          <mxGeometry x="270" y="800" width="80" height="80" as="geometry" />
        </mxCell>
        <mxCell id="iqB6r735V7o8VLmGWO_r-11" value="End" style="ellipse;whiteSpace=wrap;html=1;" vertex="1" parent="1">
          <mxGeometry x="250" y="920" width="120" height="80" as="geometry" />
        </mxCell>
        <mxCell id="iqB6r735V7o8VLmGWO_r-13" value="Login" style="shape=process;whiteSpace=wrap;html=1;backgroundOutline=1;" vertex="1" parent="1">
          <mxGeometry x="250" y="260" width="120" height="60" as="geometry" />
        </mxCell>
        <mxCell id="iqB6r735V7o8VLmGWO_r-14" value="Select&amp;nbsp; Create DPL menu" style="rounded=0;whiteSpace=wrap;html=1;" vertex="1" parent="1">
          <mxGeometry x="250" y="360" width="120" height="60" as="geometry" />
        </mxCell>
        <mxCell id="iqB6r735V7o8VLmGWO_r-15" value="" style="endArrow=classic;html=1;rounded=0;exitX=0.5;exitY=1;exitDx=0;exitDy=0;entryX=0.5;entryY=0;entryDx=0;entryDy=0;" edge="1" parent="1" source="iqB6r735V7o8VLmGWO_r-1" target="iqB6r735V7o8VLmGWO_r-13">
          <mxGeometry width="50" height="50" relative="1" as="geometry">
            <mxPoint x="460" y="320" as="sourcePoint" />
            <mxPoint x="510" y="270" as="targetPoint" />
          </mxGeometry>
        </mxCell>
        <mxCell id="iqB6r735V7o8VLmGWO_r-16" value="" style="endArrow=classic;html=1;rounded=0;exitX=0.5;exitY=1;exitDx=0;exitDy=0;entryX=0.5;entryY=0;entryDx=0;entryDy=0;" edge="1" parent="1" source="iqB6r735V7o8VLmGWO_r-13" target="iqB6r735V7o8VLmGWO_r-14">
          <mxGeometry width="50" height="50" relative="1" as="geometry">
            <mxPoint x="480" y="360" as="sourcePoint" />
            <mxPoint x="530" y="310" as="targetPoint" />
          </mxGeometry>
        </mxCell>
        <mxCell id="iqB6r735V7o8VLmGWO_r-18" value="" style="endArrow=classic;html=1;rounded=0;exitX=0.5;exitY=1;exitDx=0;exitDy=0;entryX=0.5;entryY=0;entryDx=0;entryDy=0;" edge="1" parent="1" source="iqB6r735V7o8VLmGWO_r-14" target="iqB6r735V7o8VLmGWO_r-2">
          <mxGeometry width="50" height="50" relative="1" as="geometry">
            <mxPoint x="470" y="460" as="sourcePoint" />
            <mxPoint x="520" y="410" as="targetPoint" />
          </mxGeometry>
        </mxCell>
        <mxCell id="iqB6r735V7o8VLmGWO_r-19" value="Save DPL" style="rounded=0;whiteSpace=wrap;html=1;" vertex="1" parent="1">
          <mxGeometry x="250" y="580" width="120" height="60" as="geometry" />
        </mxCell>
        <mxCell id="iqB6r735V7o8VLmGWO_r-20" value="" style="endArrow=classic;html=1;rounded=0;exitX=0.5;exitY=1;exitDx=0;exitDy=0;entryX=0.5;entryY=0;entryDx=0;entryDy=0;" edge="1" parent="1" source="iqB6r735V7o8VLmGWO_r-2" target="iqB6r735V7o8VLmGWO_r-19">
          <mxGeometry width="50" height="50" relative="1" as="geometry">
            <mxPoint x="460" y="600" as="sourcePoint" />
            <mxPoint x="510" y="550" as="targetPoint" />
          </mxGeometry>
        </mxCell>
        <mxCell id="iqB6r735V7o8VLmGWO_r-21" value="Input DPL Items detail" style="shape=parallelogram;perimeter=parallelogramPerimeter;whiteSpace=wrap;html=1;fixedSize=1;" vertex="1" parent="1">
          <mxGeometry x="230" y="680" width="160" height="80" as="geometry" />
        </mxCell>
        <mxCell id="iqB6r735V7o8VLmGWO_r-22" value="" style="endArrow=classic;html=1;rounded=0;exitX=0.5;exitY=1;exitDx=0;exitDy=0;entryX=0.5;entryY=0;entryDx=0;entryDy=0;" edge="1" parent="1" source="iqB6r735V7o8VLmGWO_r-19" target="iqB6r735V7o8VLmGWO_r-21">
          <mxGeometry width="50" height="50" relative="1" as="geometry">
            <mxPoint x="490" y="660" as="sourcePoint" />
            <mxPoint x="540" y="610" as="targetPoint" />
          </mxGeometry>
        </mxCell>
        <mxCell id="iqB6r735V7o8VLmGWO_r-23" value="" style="endArrow=classic;html=1;rounded=0;exitX=1;exitY=0.5;exitDx=0;exitDy=0;entryX=1;entryY=0.5;entryDx=0;entryDy=0;" edge="1" parent="1" source="iqB6r735V7o8VLmGWO_r-3" target="iqB6r735V7o8VLmGWO_r-21">
          <mxGeometry width="50" height="50" relative="1" as="geometry">
            <mxPoint x="440" y="850" as="sourcePoint" />
            <mxPoint x="490" y="800" as="targetPoint" />
            <Array as="points">
              <mxPoint x="410" y="840" />
              <mxPoint x="410" y="720" />
            </Array>
          </mxGeometry>
        </mxCell>
        <mxCell id="iqB6r735V7o8VLmGWO_r-24" value="Yes" style="edgeLabel;html=1;align=center;verticalAlign=middle;resizable=0;points=[];" vertex="1" connectable="0" parent="iqB6r735V7o8VLmGWO_r-23">
          <mxGeometry x="-0.7474" y="2" relative="1" as="geometry">
            <mxPoint x="3" y="2" as="offset" />
          </mxGeometry>
        </mxCell>
        <mxCell id="iqB6r735V7o8VLmGWO_r-25" value="" style="endArrow=classic;html=1;rounded=0;exitX=0.5;exitY=1;exitDx=0;exitDy=0;entryX=0.5;entryY=0;entryDx=0;entryDy=0;" edge="1" parent="1" source="iqB6r735V7o8VLmGWO_r-3" target="iqB6r735V7o8VLmGWO_r-11">
          <mxGeometry width="50" height="50" relative="1" as="geometry">
            <mxPoint x="400" y="920" as="sourcePoint" />
            <mxPoint x="450" y="870" as="targetPoint" />
          </mxGeometry>
        </mxCell>
        <mxCell id="iqB6r735V7o8VLmGWO_r-26" value="No" style="edgeLabel;html=1;align=center;verticalAlign=middle;resizable=0;points=[];" vertex="1" connectable="0" parent="iqB6r735V7o8VLmGWO_r-25">
          <mxGeometry x="-0.1185" relative="1" as="geometry">
            <mxPoint as="offset" />
          </mxGeometry>
        </mxCell>
        <mxCell id="iqB6r735V7o8VLmGWO_r-27" value="" style="endArrow=classic;html=1;rounded=0;exitX=0.5;exitY=1;exitDx=0;exitDy=0;entryX=0.5;entryY=0;entryDx=0;entryDy=0;" edge="1" parent="1" source="iqB6r735V7o8VLmGWO_r-21" target="iqB6r735V7o8VLmGWO_r-3">
          <mxGeometry width="50" height="50" relative="1" as="geometry">
            <mxPoint x="500" y="900" as="sourcePoint" />
            <mxPoint x="550" y="850" as="targetPoint" />
          </mxGeometry>
        </mxCell>
      </root>
    </mxGraphModel>
  </diagram>
</mxfile>
